<svg width="200" height="200" version="1.1" viewBox="0 0 52.9 52.9" xmlns="http://www.w3.org/2000/svg" xmlns:xlink="http://www.w3.org/1999/xlink">
 <rect x="1.25e-6" y="1.25e-6" width="52.9" height="52.9" fill="#f7df1e"/>
 <path d="m35.54 41.33c1.066 1.74 2.452 3.019 4.904 3.019 2.06 0 3.376-1.029 3.376-2.452 0-1.705-1.352-2.308-3.619-3.3l-1.243-0.5332c-3.587-1.528-5.97-3.443-5.97-7.49 0-3.728 2.841-6.566 7.28-6.566 3.161 0 5.433 1.1 7.07 3.98l-3.871 2.485c-0.8523-1.528-1.772-2.13-3.199-2.13-1.456 0-2.379 0.9237-2.379 2.13 0 1.491 0.9236 2.095 3.056 3.019l1.243 0.5324c4.224 1.811 6.608 3.658 6.608 7.809 0 4.476-3.516 6.927-8.237 6.927-4.617 0-7.599-2.2-9.058-5.083zm-17.56 0.4308c0.7809 1.385 1.491 2.557 3.199 2.557 1.633 0 2.663-0.639 2.663-3.124v-16.9h4.971v16.97c0 5.147-3.018 7.49-7.423 7.49-3.98 0-6.285-2.06-7.457-4.541z"/>
</svg>
