<svg width="200" height="200" version="1.1" viewBox="0 0 52.9 52.9" xmlns="http://www.w3.org/2000/svg">
 <path d="m52.9 26.5c0-3.51-4.39-6.83-11.1-8.89 1.55-6.86 0.863-12.3-2.18-14.1-0.701-0.41-1.52-0.604-2.42-0.604v2.41c0.496 0 0.895 0.0971 1.23 0.28 1.47 0.841 2.1 4.04 1.61 8.17-0.119 1.01-0.313 2.08-0.55 3.17-2.11-0.518-4.42-0.917-6.85-1.18-1.46-2-2.97-3.81-4.49-5.39 3.52-3.27 6.82-5.06 9.06-5.06v-2.41c-2.97 0-6.85 2.11-10.8 5.78-3.93-3.65-7.81-5.74-10.8-5.74v2.41c2.23 0 5.54 1.78 9.06 5.03-1.51 1.59-3.02 3.39-4.45 5.38-2.44 0.259-4.75 0.658-6.86 1.19-0.248-1.08-0.431-2.12-0.561-3.13-0.507-4.12 0.119-7.32 1.57-8.18 0.324-0.194 0.744-0.28 1.24-0.28v-2.41c-0.906 0-1.73 0.194-2.44 0.604-3.03 1.75-3.71 7.19-2.15 14-6.71 2.07-11.1 5.38-11.1 8.88 0 3.51 4.39 6.83 11.1 8.89-1.55 6.86-0.863 12.3 2.18 14.1 0.701 0.41 1.52 0.604 2.43 0.604 2.97 0 6.85-2.11 10.8-5.78 3.93 3.65 7.81 5.74 10.8 5.74 0.906 0 1.73-0.194 2.44-0.604 3.03-1.75 3.71-7.19 2.15-14 6.69-2.06 11.1-5.38 11.1-8.88zm-14-7.19c-0.399 1.39-0.895 2.83-1.46 4.26-0.442-0.863-0.906-1.73-1.41-2.59-0.496-0.863-1.02-1.7-1.55-2.52 1.53 0.227 3.01 0.507 4.42 0.852zm-4.94 11.5c-0.841 1.46-1.7 2.84-2.6 4.12-1.61 0.14-3.24 0.216-4.88 0.216-1.63 0-3.26-0.0755-4.85-0.205-0.895-1.28-1.77-2.65-2.61-4.1-0.82-1.41-1.56-2.85-2.24-4.29 0.669-1.45 1.42-2.89 2.23-4.3 0.841-1.46 1.7-2.84 2.6-4.12 1.61-0.14 3.24-0.216 4.88-0.216 1.63 0 3.26 0.0755 4.85 0.205 0.895 1.28 1.77 2.65 2.61 4.1 0.82 1.41 1.56 2.85 2.24 4.29-0.68 1.45-1.42 2.89-2.23 4.3zm3.48-1.4c0.582 1.45 1.08 2.89 1.49 4.29-1.41 0.345-2.9 0.636-4.44 0.863 0.529-0.831 1.06-1.68 1.55-2.56 0.496-0.863 0.96-1.74 1.4-2.6zm-10.9 11.5c-1-1.04-2.01-2.19-3-3.45 0.971 0.0431 1.96 0.0755 2.97 0.0755 1.01 0 2.02-0.0216 3-0.0755-0.971 1.26-1.97 2.42-2.97 3.45zm-8.02-6.35c-1.53-0.226-3.01-0.507-4.42-0.852 0.399-1.39 0.895-2.83 1.46-4.26 0.442 0.863 0.906 1.73 1.41 2.59 0.507 0.863 1.02 1.7 1.55 2.52zm7.97-22.4c1 1.04 2.01 2.19 3 3.45-0.971-0.0431-1.96-0.0755-2.97-0.0755-1.01 0-2.02 0.0216-3 0.0755 0.971-1.26 1.97-2.42 2.97-3.45zm-7.98 6.35c-0.529 0.831-1.06 1.68-1.55 2.56-0.496 0.863-0.96 1.73-1.4 2.59-0.582-1.45-1.08-2.89-1.49-4.29 1.41-0.334 2.9-0.626 4.44-0.852zm-9.76 13.5c-3.82-1.63-6.29-3.76-6.29-5.46 0-1.69 2.47-3.84 6.29-5.46 0.928-0.399 1.94-0.755 2.99-1.09 0.615 2.11 1.42 4.31 2.43 6.57-0.992 2.24-1.79 4.43-2.39 6.54-1.07-0.334-2.08-0.701-3.02-1.1zm5.8 15.4c-1.47-0.841-2.1-4.04-1.61-8.17 0.119-1.01 0.313-2.08 0.55-3.17 2.11 0.518 4.42 0.917 6.85 1.18 1.46 2 2.97 3.81 4.49 5.39-3.52 3.27-6.82 5.06-9.06 5.06-0.485-0.0108-0.895-0.108-1.22-0.291zm25.6-8.22c0.507 4.12-0.119 7.32-1.57 8.18-0.324 0.194-0.744 0.28-1.24 0.28-2.23 0-5.54-1.78-9.06-5.03 1.51-1.59 3.02-3.39 4.45-5.38 2.44-0.259 4.75-0.658 6.86-1.19 0.248 1.09 0.442 2.14 0.561 3.14zm4.15-7.19c-0.928 0.399-1.94 0.755-2.99 1.09-0.615-2.11-1.42-4.31-2.43-6.57 0.992-2.24 1.79-4.43 2.39-6.54 1.07 0.334 2.08 0.701 3.03 1.1 3.82 1.63 6.29 3.76 6.29 5.46-0.0108 1.69-2.48 3.84-6.3 5.46z" fill="#61dafb"/>
 <circle cx="26.5" cy="26.5" r="4.93" fill="#61dafb"/>
</svg>
