<svg width="200" height="200" version="1.1" viewBox="0 0 52.9 52.9" xmlns="http://www.w3.org/2000/svg" xmlns:xlink="http://www.w3.org/1999/xlink">
 <path d="m45.65 6.999c-4.912-7.031-14.61-9.114-21.63-4.645l-12.32 7.852a14.13 14.13 0 0 0-6.385 9.467 14.88 14.88 0 0 0 1.468 9.556 14.17 14.17 0 0 0-2.114 5.282 15.06 15.06 0 0 0 2.573 11.39c4.913 7.031 14.61 9.114 21.63 4.645l12.32-7.852a14.13 14.13 0 0 0 6.385-9.467 14.89 14.89 0 0 0-1.467-9.556 14.17 14.17 0 0 0 2.113-5.282 15.06 15.06 0 0 0-2.573-11.39" fill="#ff3e00" stroke-width=".2645"/>
 <path d="m22.82 46.56a9.786 9.786 0 0 1-10.5-3.893 9.056 9.056 0 0 1-1.548-6.85 8.591 8.591 0 0 1 0.2944-1.15l0.232-0.7074 0.6312 0.4636a15.89 15.89 0 0 0 4.819 2.408l0.4579 0.1389-0.04218 0.457a2.762 2.762 0 0 0 0.4969 1.832 2.947 2.947 0 0 0 3.162 1.174 2.713 2.713 0 0 0 0.7567-0.3326l12.32-7.851a2.565 2.565 0 0 0 1.157-1.715 2.737 2.737 0 0 0-0.4664-2.065 2.949 2.949 0 0 0-3.164-1.174 2.712 2.712 0 0 0-0.7557 0.3323l-4.701 2.997a8.99 8.99 0 0 1-2.502 1.099 9.786 9.786 0 0 1-10.5-3.893 9.056 9.056 0 0 1-1.548-6.85 8.496 8.496 0 0 1 3.84-5.692l12.32-7.851a8.976 8.976 0 0 1 2.503-1.1 9.786 9.786 0 0 1 10.5 3.893 9.056 9.056 0 0 1 1.548 6.85 8.691 8.691 0 0 1-0.2944 1.15l-0.232 0.7074-0.6308-0.4629a15.88 15.88 0 0 0-4.819-2.409l-0.4579-0.139 0.04218-0.457a2.767 2.767 0 0 0-0.4969-1.832 2.947 2.947 0 0 0-3.162-1.174 2.713 2.713 0 0 0-0.7567 0.3326l-12.32 7.851a2.561 2.561 0 0 0-1.157 1.715 2.733 2.733 0 0 0 0.4655 2.065 2.949 2.949 0 0 0 3.164 1.174 2.723 2.723 0 0 0 0.7567-0.3326l4.7-2.996a8.964 8.964 0 0 1 2.501-1.099 9.786 9.786 0 0 1 10.5 3.893 9.056 9.056 0 0 1 1.548 6.85 8.501 8.501 0 0 1-3.84 5.693l-12.32 7.851a8.976 8.976 0 0 1-2.503 1.1" fill="#fff" stroke-width=".2645"/>
</svg>
