<svg width="200" height="200" version="1.1" viewBox="0 0 52.9 52.9" xmlns="http://www.w3.org/2000/svg" xmlns:xlink="http://www.w3.org/1999/xlink">
 <rect width="52.9" height="52.9" rx="5.29" ry="5.29" fill="#3178c6"/>
 <path d="m31.1 41.43v5.707c0.9282 0.4757 2.026 0.8323 3.293 1.07 1.267 0.2378 2.603 0.3567 4.007 0.3567 1.368 0 2.669-0.1308 3.9-0.3924 1.232-0.2616 2.312-0.6927 3.24-1.293 0.9282-0.6005 1.663-1.385 2.205-2.354 0.5414-0.9689 0.8121-2.167 0.8121-3.594 0-1.034-0.1548-1.941-0.4641-2.72-0.3093-0.7788-0.7557-1.471-1.339-2.078-0.5829-0.6065-1.282-1.15-2.097-1.632-0.8152-0.4815-1.735-0.9363-2.758-1.364-0.7497-0.3093-1.422-0.6094-2.017-0.9007-0.5949-0.2914-1.101-0.5885-1.517-0.8919-0.4166-0.3031-0.7379-0.6243-0.964-0.9632-0.2261-0.3389-0.3391-0.7222-0.3391-1.15 0-0.3924 0.101-0.746 0.3033-1.061s0.4881-0.5856 0.8569-0.8115c0.3689-0.2261 0.821-0.4013 1.357-0.5263 0.5354-0.1248 1.131-0.1872 1.785-0.1872 0.4761 0 0.9789 0.03575 1.508 0.107 0.5296 0.07129 1.062 0.1812 1.598 0.33 0.5354 0.1486 1.056 0.3358 1.562 0.5619 0.5056 0.2259 0.9729 0.4875 1.401 0.7846v-5.333c-0.8687-0.3329-1.818-0.5796-2.847-0.7402s-2.21-0.2407-3.543-0.2407c-1.357 0-2.642 0.1457-3.856 0.437-1.214 0.2912-2.282 0.746-3.204 1.364-0.9222 0.6185-1.651 1.406-2.187 2.363-0.5354 0.9572-0.8032 2.102-0.8032 3.433 0 1.7 0.4908 3.151 1.473 4.352 0.9818 1.201 2.472 2.217 4.471 3.05 0.7854 0.3211 1.517 0.636 2.196 0.9454 0.6784 0.3091 1.264 0.63 1.758 0.9629s0.8836 0.6956 1.169 1.088c0.2856 0.3924 0.4284 0.8383 0.4284 1.338 0 0.3684-0.08927 0.7104-0.2678 1.026-0.1783 0.3149-0.4492 0.5885-0.8121 0.8204s-0.8152 0.4131-1.357 0.5439c-0.5414 0.1308-1.175 0.1963-1.901 0.1963-1.238 0-2.463-0.217-3.677-0.6511-1.214-0.4339-2.339-1.085-3.374-1.953zm-9.513-14.2h7.339v-4.699h-20.46v4.699h7.304v20.92h5.814z" fill="#fff"/>
</svg>
